<svg version="1.1" id="Layer_1" xmlns="http://www.w3.org/2000/svg" xmlns:xlink="http://www.w3.org/1999/xlink" x="0px" y="0px"
	 width="100%" viewBox="0 0 1024 1024" enable-background="new 0 0 1024 1024" xml:space="preserve">
<path fill="none" opacity="1.000000" stroke="#000000" stroke-linecap="round" stroke-linejoin="round" stroke-width="13.000000"
	d="
M520.500000,602.000000 
	C518.821594,591.194275 525.001160,583.819885 531.482727,576.484741 
	C550.675354,554.764648 574.358521,539.461670 600.476379,527.448669 
	C618.227844,519.283813 636.775146,513.797119 656.023926,511.175568 
	C668.388672,509.491577 680.931458,509.451324 693.516357,510.238007 
	C700.926697,510.701233 708.500000,513.253479 716.054871,510.402008 
	C717.594849,507.682465 717.523254,504.601929 717.515076,501.499969 
	C717.479858,488.166718 717.500000,474.833344 717.500000,461.500000 
	C717.500000,436.500000 717.516724,411.499969 717.481201,386.500031 
	C717.476074,382.908325 718.154175,379.479004 718.797729,375.962982 
	C719.419373,372.566406 716.719421,369.289886 716.901123,365.495270 
	C717.243591,358.345001 716.867249,351.163635 717.030823,344.000702 
	C717.282288,332.989990 715.330078,333.347260 705.975952,332.195190 
	C685.136169,329.628448 664.194641,330.294006 643.511475,334.063019 
	C610.503052,340.078033 580.363770,352.499878 554.444031,374.433838 
	C540.254944,386.441010 528.156982,399.991943 519.500000,416.500000 
"/>
<path fill="none" opacity="1.000000" stroke="#000000" stroke-linecap="round" stroke-linejoin="round" stroke-width="20.000000"
	d="
M343.500000,723.500000 
	C342.888611,707.107605 334.503326,694.578918 317.458374,690.160522 
	C311.717163,688.672363 305.732819,690.430847 300.513031,693.522034 
	C288.442017,700.670471 282.779114,718.512268 285.249878,732.045654 
	C287.102753,742.194580 290.884277,750.135986 299.453186,756.067627 
	C311.507782,764.412354 324.924438,761.167297 333.570923,752.571350 
	C341.664825,744.524719 343.846313,734.791138 343.500000,724.000000 
"/>
<path fill="none" opacity="1.000000" stroke="#000000" stroke-linecap="round" stroke-linejoin="round" stroke-width="14.000000"
	d="
M740.500000,374.500000 
	C742.505432,378.100494 743.724487,381.807648 742.545532,386.012787 
	C742.242310,387.094421 742.500000,388.333344 742.500000,389.500000 
	C742.500000,438.166656 742.458374,486.833435 742.561035,535.499878 
	C742.571899,540.651489 741.940063,545.435547 738.409729,550.004211 
	C733.909973,550.007446 728.996094,550.157898 724.419312,553.385559 
	C718.569763,557.510803 711.185242,556.633972 704.486389,557.929443 
	C686.192627,561.467468 667.783752,564.418030 649.512390,568.061951 
	C625.878601,572.775208 602.249146,577.551086 578.980591,583.929199 
	C576.457764,584.620728 573.356689,585.166626 571.068604,584.315491 
	C567.085876,582.834045 563.942383,583.680054 560.475891,585.452881 
	C555.234863,588.133362 549.910645,590.689209 544.465149,592.914673 
	C541.995239,593.924133 539.834106,595.373535 538.088623,597.090149 
	C534.913269,600.213013 531.457092,601.952515 527.012329,602.586609 
	C517.997070,603.872681 508.996918,603.892212 500.008759,602.919189 
	C495.949554,602.479675 492.122833,600.804260 489.012665,597.986023 
	C484.382721,593.790710 478.961731,591.174438 473.004700,589.483459 
	C468.370178,588.167847 464.311523,585.547791 459.987823,583.526062 
	C458.565094,582.860779 456.564636,581.636108 455.569397,582.137695 
	C448.072571,585.915588 441.005188,582.648926 434.021637,580.912903 
	C405.863129,573.913269 377.465576,568.033081 348.982697,562.590515 
	C334.915680,559.902527 320.647614,558.280334 306.514526,555.913208 
	C303.322968,555.378662 300.043182,554.591980 297.448608,552.052490 
	C294.701782,549.363892 290.901123,550.327759 287.391541,549.852417 
	C283.836792,545.089966 282.512756,539.566345 282.981750,533.498596 
	C283.522308,526.504639 283.226929,519.509033 283.128815,512.498169 
	C282.895508,495.837128 283.487518,479.166443 283.464966,462.500061 
	C283.428467,435.499878 283.157288,408.500061 283.022705,381.499878 
	C283.014404,379.834106 282.758575,377.741425 283.614410,376.584656 
	C285.670471,373.805634 284.443665,371.742126 283.000000,369.500000 
"/>
<path fill="none" opacity="1.000000" stroke="#000000" stroke-linecap="round" stroke-linejoin="round" stroke-width="15.000000"
	d="
M490.500000,395.500000 
	C481.110748,383.652710 470.455048,373.217407 458.056000,364.421082 
	C440.516785,351.978119 421.099091,343.830536 400.472321,338.609314 
	C380.518311,333.558350 360.154541,330.823029 339.500427,331.041656 
	C334.330841,331.096344 329.170837,331.792511 323.998810,331.964691 
	C318.806610,332.137543 313.751709,332.758484 308.500000,335.307678 
	C308.500000,345.161255 308.442413,355.331177 308.539948,365.499603 
	C308.564789,368.085449 308.160706,370.547699 307.484711,372.995789 
	C307.247284,373.855591 306.332001,374.871918 306.576324,375.468750 
	C309.526794,382.675232 307.861023,390.176697 307.905243,397.500580 
	C308.116608,432.499298 308.000000,467.500000 308.000000,502.500000 
	C308.000000,510.216644 310.550232,512.614746 317.996094,511.474579 
	C332.447327,509.261658 347.058228,508.958435 361.480011,510.227203 
	C380.045410,511.860474 397.984436,516.719727 415.566528,523.322815 
	C436.319550,531.116821 455.047516,542.066895 472.507324,555.490479 
	C484.037903,564.355469 493.889648,574.814392 502.515350,586.488647 
	C506.131348,591.382568 505.453369,596.987915 505.500000,602.500000 
"/>
<path fill="none" opacity="1.000000" stroke="#000000" stroke-linecap="round" stroke-linejoin="round" stroke-width="10.000000"
	d="
M523.500000,544.500000 
	C527.283997,535.166443 533.816467,527.737549 540.533997,520.531738 
	C564.132812,495.217285 593.154968,479.403870 626.439087,470.277924 
	C643.613770,465.568939 660.911804,463.623108 678.500000,462.750000 
"/>
<path fill="none" opacity="1.000000" stroke="#000000" stroke-linecap="round" stroke-linejoin="round" stroke-width="12.000000"
	d="
M456.000000,581.500000 
	C454.924683,575.939026 451.536987,572.575623 446.553986,569.899475 
	C433.567780,562.925232 420.117767,557.149292 405.989899,553.034668 
	C384.603241,546.805969 362.851105,542.905823 340.509155,541.813049 
	C328.900330,541.245239 317.484344,542.441956 306.008820,543.144348 
	C301.612976,543.413391 297.958435,546.166809 296.000000,550.500000 
"/>
<path fill="none" opacity="1.000000" stroke="#000000" stroke-linecap="round" stroke-linejoin="round" stroke-width="10.000000"
	d="
M501.500000,543.500000 
	C497.186890,532.621643 489.471863,524.102844 481.416229,516.084167 
	C463.230499,497.981842 441.633575,485.250122 417.532440,476.411530 
	C395.981476,468.508118 373.779419,464.267426 351.003937,462.450500 
	C349.766357,462.351746 348.737732,463.661407 347.500000,462.750000 
"/>
<path fill="none" opacity="1.000000" stroke="#000000" stroke-linecap="round" stroke-linejoin="round" stroke-width="10.000000"
	d="
M678.500000,383.750000 
	C666.657349,384.911621 654.782959,385.364380 642.978271,387.372223 
	C610.003479,392.980896 580.573792,406.198486 554.518494,427.023163 
	C542.209290,436.861328 532.021179,448.571899 524.500000,462.500000 
"/>
<path fill="none" opacity="1.000000" stroke="#000000" stroke-linecap="round" stroke-linejoin="round" stroke-width="10.000000"
	d="
M677.000000,422.500000 
	C668.068115,424.113037 658.973145,424.023193 649.975708,425.332977 
	C634.064331,427.649261 618.980774,432.529694 603.998413,437.995636 
	C583.889465,445.331879 565.827820,456.362366 550.190002,470.707123 
	C539.984070,480.069122 529.814453,490.038422 524.500000,503.500000 
"/>
<path fill="none" opacity="1.000000" stroke="#000000" stroke-linecap="round" stroke-linejoin="round" stroke-width="10.000000"
	d="
M347.500000,422.750000 
	C377.757843,423.728394 406.493530,430.845764 434.030914,443.432373 
	C458.807861,454.757263 479.202484,471.293640 495.460510,493.029541 
	C497.417389,495.645813 498.833313,498.666687 500.500000,501.500000 
"/>
<path fill="none" opacity="1.000000" stroke="#000000" stroke-linecap="round" stroke-linejoin="round" stroke-width="10.000000"
	d="
M348.500000,383.750000 
	C357.484222,384.821442 366.527863,384.918396 375.526642,386.330170 
	C389.001129,388.444092 402.168030,391.420135 415.003143,395.991180 
	C447.793915,407.669220 475.677826,426.148499 496.537323,454.472504 
	C498.165924,456.683868 499.237793,459.126007 500.500000,461.500000 
"/>
<path fill="none" opacity="1.000000" stroke="#000000" stroke-linecap="round" stroke-linejoin="round" stroke-width="12.000000"
	d="
M558.500000,205.000000 
	C558.131165,207.964508 557.089905,209.317703 553.572388,210.267944 
	C546.260071,212.243286 539.992065,216.801254 533.998108,221.497620 
	C516.858276,234.927139 502.626282,250.808167 493.020630,270.510071 
	C485.647095,285.633789 481.311829,301.459595 481.927032,318.502625 
	C482.200958,326.091522 484.328796,333.260071 486.189423,340.450989 
	C487.020233,343.661896 489.788055,346.465179 493.500000,347.500000 
"/>
<path fill="none" opacity="1.000000" stroke="#000000" stroke-linecap="round" stroke-linejoin="round" stroke-width="9.000000"
	d="
M194.000000,705.000000 
	C204.666672,704.309692 215.332993,706.411865 226.001083,705.008301 
	C226.492584,704.943665 227.162949,704.789124 227.475967,705.031128 
	C233.791672,709.912170 242.185822,711.815796 247.419037,718.067749 
	C254.332565,726.327209 253.591309,742.474792 243.553436,750.070618 
	C233.473282,757.698425 221.958298,758.960876 209.999985,758.994446 
	C203.238251,759.013367 197.505600,756.402649 192.500000,752.000000 
"/>
<path fill="none" opacity="1.000000" stroke="#000000" stroke-linecap="round" stroke-linejoin="round" stroke-width="20.000000"
	d="
M630.000000,743.250000 
	C626.712158,744.408997 625.066589,741.699280 623.589661,739.925354 
	C618.196228,733.447449 613.231689,726.615051 607.987122,720.010254 
	C595.215088,703.925720 583.360596,687.130859 570.049866,671.457642 
	C563.277039,663.482727 555.501709,657.436951 544.994873,655.528259 
	C544.351196,655.411438 543.502808,655.177979 543.000000,656.000000 
"/>
<path fill="none" opacity="1.000000" stroke="#000000" stroke-linecap="round" stroke-linejoin="round" stroke-width="13.000000"
	d="
M726.500000,548.000000 
	C723.592346,543.783447 719.206604,542.643921 714.499268,542.530212 
	C701.996338,542.228088 689.544678,541.836731 676.983704,542.784180 
	C657.463806,544.256470 638.289612,547.110291 619.506958,552.524170 
	C603.401855,557.166260 588.007935,563.562134 573.509277,572.015869 
	C569.481812,574.364136 567.292358,578.137390 566.000000,582.500000 
"/>
<path fill="none" opacity="1.000000" stroke="#000000" stroke-linecap="round" stroke-linejoin="round" stroke-width="11.000000"
	d="
M537.500000,251.500000 
	C525.529663,264.717804 517.265076,280.168488 510.515381,296.506348 
	C504.721893,310.529541 500.509430,325.021301 497.969666,339.994843 
	C497.694611,341.616364 497.234039,343.293427 496.457581,344.727020 
	C493.771088,349.687317 493.646606,349.672729 495.518829,354.492676 
	C496.900330,358.049194 497.557526,361.515686 497.762848,365.486420 
	C498.429993,378.386749 501.688843,390.836365 507.500000,402.500000 
"/>
<path fill="none" opacity="1.000000" stroke="#000000" stroke-linecap="round" stroke-linejoin="round" stroke-width="13.000000"
	d="
M557.500000,210.000000 
	C561.860046,213.655212 562.594727,218.882385 563.486206,224.002411 
	C565.905029,237.894089 565.377197,251.640137 562.671570,265.533417 
	C560.695618,275.680115 554.817383,282.024445 546.516418,287.027283 
	C543.343140,288.939819 540.359436,291.169098 536.500000,291.500000 
"/>
<path fill="none" opacity="1.000000" stroke="#000000" stroke-linecap="round" stroke-linejoin="round" stroke-width="19.000000"
	d="
M824.500000,692.500000 
	C823.377686,699.644470 824.150818,706.834167 824.038452,714.000610 
	C823.884338,723.831482 824.000000,733.666687 824.000000,743.500000 
	C824.000000,752.874817 829.564392,758.525269 838.999817,758.466187 
	C844.333008,758.432861 849.352722,757.156250 853.500000,753.500000 
"/>
<path fill="none" opacity="1.000000" stroke="#000000" stroke-linecap="round" stroke-linejoin="round" stroke-width="11.000000"
	d="
M562.000000,668.500000 
	C558.193359,672.010254 556.892517,676.325684 556.929993,681.500488 
	C557.093140,703.999329 557.011597,726.500000 556.978333,748.999939 
	C556.975647,750.833496 556.666687,752.666687 556.500000,754.500000 
"/>
<path fill="none" opacity="1.000000" stroke="#000000" stroke-linecap="round" stroke-linejoin="round" stroke-width="12.000000"
	d="
M635.500000,660.000000 
	C635.500000,682.000000 635.239502,704.005127 635.671326,725.996643 
	C635.788879,731.982727 635.817444,737.296448 631.000000,741.500000 
"/>
<path fill="none" opacity="1.000000" stroke="#000000" stroke-linecap="round" stroke-linejoin="round" stroke-width="17.000000"
	d="
M748.500000,709.000000 
	C749.956665,716.828918 755.647583,720.153320 762.478333,722.561462 
	C767.198608,724.225647 771.937988,725.845093 776.546021,727.896667 
	C782.477844,730.537659 786.701843,734.568115 786.832520,741.003418 
	C786.973938,747.967102 784.281616,753.989258 777.516052,757.530640 
	C767.202209,762.929321 757.552673,760.885315 747.968628,755.556458 
	C745.570007,754.222839 745.248413,752.070435 745.086426,749.993286 
	C744.841248,746.851868 743.670776,743.999084 743.000000,741.000000 
"/>
<path fill="none" opacity="1.000000" stroke="#000000" stroke-linecap="round" stroke-linejoin="round" stroke-width="19.000000"
	d="
M717.500000,713.500000 
	C716.913818,704.549255 713.846802,697.200684 705.539978,692.430359 
	C695.183289,686.482849 686.611084,690.173035 679.649475,697.149170 
	C671.360596,705.455383 668.695496,716.215515 669.370483,728.007385 
	C669.707031,733.886841 670.551575,739.369263 673.485657,744.508179 
	C679.242554,754.591248 689.403442,759.140808 701.007874,758.715332 
	C710.117554,758.381287 717.311340,755.230164 723.460205,748.960999 
	C724.200623,748.206116 724.852600,748.743774 725.500000,748.500000 
"/>
<path fill="none" opacity="1.000000" stroke="#000000" stroke-linecap="round" stroke-linejoin="round" stroke-width="21.000000"
	d="
M171.500000,759.500000 
	C177.619827,759.114136 183.792648,758.962891 189.005539,755.007263 
	C191.021454,753.477600 192.537216,751.947021 192.572357,749.000854 
	C192.747284,734.332275 193.722839,719.651917 193.333710,705.004395 
	C192.988129,691.995789 193.271530,678.998840 193.045197,665.999207 
	C193.013702,664.190247 192.692139,663.092102 191.054794,661.923279 
	C185.458069,657.927734 179.296021,655.875427 172.500000,655.500000 
"/>
<path fill="none" opacity="1.000000" stroke="#000000" stroke-linecap="round" stroke-linejoin="round" stroke-width="8.000000"
	d="
M228.000000,705.000000 
	C228.688721,701.132507 231.611664,698.953125 234.533813,697.052002 
	C242.441483,691.907166 245.558838,684.738586 244.518494,675.497925 
	C243.875351,669.785278 240.147247,666.023560 235.933517,663.095703 
	C226.300415,656.402222 215.306747,655.454590 204.006073,657.043213 
	C200.339600,657.558594 196.996277,659.059631 194.500000,662.000000 
"/>
<path fill="none" opacity="1.000000" stroke="#000000" stroke-linecap="round" stroke-linejoin="round" stroke-width="11.000000"
	d="
M543.500000,315.500000 
	C544.865234,319.239716 543.657898,322.472168 541.497559,325.498230 
	C531.829651,339.040314 519.724609,349.924164 505.504974,358.508240 
	C503.336456,359.817261 501.001526,360.422028 498.500000,360.500000 
"/>
<path fill="none" opacity="1.000000" stroke="#000000" stroke-linecap="round" stroke-linejoin="round" stroke-width="9.000000"
	d="
M716.500000,714.000000 
	C712.984924,717.794128 708.601929,719.204956 703.499146,719.024109 
	C692.667786,718.640137 681.788147,719.801208 671.000000,718.000000 
"/>
<path fill="none" opacity="1.000000" stroke="#000000" stroke-linecap="round" stroke-linejoin="round" stroke-width="8.000000"
	d="
M788.000000,707.000000 
	C787.666687,706.000000 787.295715,705.010742 787.007141,703.997986 
	C786.153992,701.003601 786.170166,697.252563 784.309937,695.169739 
	C781.284485,691.782349 776.419739,690.747620 771.985962,690.095337 
	C763.066956,688.783386 755.511719,691.779907 750.104797,699.077637 
	C748.891235,700.715637 748.917419,703.318848 748.532715,705.505737 
	C748.321045,706.709167 748.765442,708.132690 747.000000,708.500000 
"/>
<path fill="none" opacity="1.000000" stroke="#000000" stroke-linecap="round" stroke-linejoin="round" stroke-width="19.000000"
	d="
M473.750000,650.000000 
	C469.409851,654.365051 469.223145,659.522766 469.291809,665.502380 
	C469.601776,692.496887 469.120361,719.499939 469.071594,746.500122 
	C469.066742,749.200012 467.777191,752.183777 470.931244,754.590088 
	C474.886993,757.608032 478.979309,759.719177 484.000061,759.737122 
	C485.166382,759.741272 486.333344,759.583313 487.500000,759.500000 
"/>
<path fill="none" opacity="1.000000" stroke="#000000" stroke-linecap="round" stroke-linejoin="round" stroke-width="18.000000"
	d="
M510.000000,694.500000 
	C509.058258,698.335022 506.924988,701.370667 504.027740,704.030212 
	C500.905029,706.896606 497.881744,709.892395 495.029236,713.026611 
	C491.289490,717.135803 491.029449,722.348083 493.996002,727.002563 
	C498.344910,733.825928 502.427277,740.834229 507.062103,747.456543 
	C512.551819,755.300232 520.291199,759.230225 530.000549,759.025940 
	C531.163208,759.001526 532.333313,759.333374 533.500000,759.500000 
"/>
<path fill="none" opacity="1.000000" stroke="#000000" stroke-linecap="round" stroke-linejoin="round" stroke-width="10.000000"
	d="
M558.500000,297.500000 
	C554.166626,302.666656 549.853821,307.850800 545.478577,312.981750 
	C544.798584,313.779175 543.761108,314.983795 543.011047,314.900452 
	C534.529602,313.958099 529.377991,320.772858 522.535767,323.586914 
	C519.456604,324.853394 516.454346,326.580963 514.000000,329.000000 
"/>
<path fill="none" opacity="1.000000" stroke="#000000" stroke-linecap="round" stroke-linejoin="round" stroke-width="11.000000"
	d="
M829.999939,669.000000 
	C827.833313,675.000000 825.642334,680.991394 823.509033,687.003235 
	C822.231262,690.604248 823.143982,691.944336 827.000183,691.982422 
	C833.499512,692.046692 840.014221,691.745544 846.493958,692.107971 
	C849.706055,692.287598 851.582214,689.529785 854.500000,689.500000 
"/>
<path fill="none" opacity="1.000000" stroke="#000000" stroke-linecap="round" stroke-linejoin="round" stroke-width="8.000000"
	d="
M540.500000,759.500000 
	C545.127991,759.776917 549.430176,758.365540 553.452759,756.403137 
	C555.715088,755.299438 557.249878,755.129456 559.550598,756.409058 
	C564.793030,759.324646 570.589661,759.823486 576.500000,759.000000 
"/>
<path fill="none" opacity="1.000000" stroke="#000000" stroke-linecap="round" stroke-linejoin="round" stroke-width="9.000000"
	d="
M822.500000,689.500000 
	C816.057007,688.839966 810.485413,692.101013 804.500000,693.500000 
"/>
<path fill="none" opacity="1.000000" stroke="#000000" stroke-linecap="round" stroke-linejoin="round" stroke-width="8.000000"
	d="
M653.500000,655.500000 
	C648.292847,655.464355 643.201660,655.839111 638.472290,658.449829 
	C636.737244,659.407532 635.040710,659.368896 632.918213,658.141357 
	C629.038391,655.897522 624.645020,654.640747 620.000000,656.000000 
"/>
<path fill="none" opacity="1.000000" stroke="#000000" stroke-linecap="round" stroke-linejoin="round" stroke-width="6.000000"
	d="
M469.000000,753.500000 
	C463.948883,757.781494 458.132568,759.831055 451.500000,759.500000 
"/>
<path fill="none" opacity="1.000000" stroke="#000000" stroke-linecap="round" stroke-linejoin="round" stroke-width="8.000000"
	d="
M468.000000,657.500000 
	C462.821014,654.734375 457.168823,654.571533 451.500000,654.500000 
"/>
<path fill="none" opacity="1.000000" stroke="#000000" stroke-linecap="round" stroke-linejoin="round" stroke-width="8.000000"
	d="
M525.500000,689.749939 
	C521.000000,691.083313 516.501953,692.423340 511.998474,693.744751 
	C510.979889,694.043579 510.016632,694.308716 508.984741,693.519958 
	C504.970886,690.452087 500.264038,690.311829 495.500000,690.500000 
"/>
<path fill="none" opacity="1.000000" stroke="#000000" stroke-linecap="round" stroke-linejoin="round" stroke-width="9.000000"
	d="
M400.000000,690.000000 
	C380.350677,694.343567 373.684540,713.108398 374.598022,727.493774 
	C375.574554,742.871704 383.399872,756.237793 398.977936,760.089294 
	C409.385101,762.662354 417.329163,758.840515 424.491058,751.990662 
	C430.596497,746.151123 432.861115,738.710144 433.545044,730.503784 
	C434.264160,721.875793 433.785095,713.622864 429.032898,705.979553 
	C422.422546,695.347534 413.265900,689.515930 400.500000,690.000000 
"/>
</svg>